<?xml version="1.0" encoding="UTF-8"?>
<svg width="36px" height="36px" viewBox="0 0 36 36" version="1.1" xmlns="http://www.w3.org/2000/svg" xmlns:xlink="http://www.w3.org/1999/xlink">
    <!-- Generator: Sketch 51.2 (57519) - http://www.bohemiancoding.com/sketch -->
    <title>Group</title>
    <desc>Created with Sketch.</desc>
    <defs></defs>
    <g id="Page-1" stroke="none" stroke-width="1" fill="none" fill-rule="evenodd">
        <g id="Signup" transform="translate(-50.000000, -45.000000)">
            <g id="Left">
                <g id="Group" transform="translate(48.000000, 44.000000)">
                    <path d="M5.000073,1.500155 C3.61953138,1.500155 2.498984,2.61992811 2.498984,4.000113 L2.498984,34.000278 C2.498984,35.3804629 3.61953138,36.500236 5.000073,36.500236 L34.944078,36.500236 C36.3256252,36.500236 37.445167,35.381056 37.445167,34.000278 L37.445167,4.000113 C37.445167,2.61933499 36.3256252,1.500155 34.944078,1.500155 L5.000073,1.500155 Z" id="Rectangle-3-copie-99" stroke-opacity="0.84" stroke="#363531"></path>
                    <path d="M22.854064,26.997724 L23.992564,25.87402 L17.225068,18.993664 L17.947552,18.2593 L17.942788,18.262702 L23.957632,12.150244 L22.835008,11.010052 C21.17092,12.699298 16.532752,17.416936 14.981416,18.993664 C16.134208,20.16568 15.009988,19.022644 22.854064,26.997724 Z" id="Forme-1241-copie-2" fill-opacity="0.84" fill="#363531"></path>
                </g>
            </g>
        </g>
    </g>
</svg>