<?xml version="1.0" encoding="UTF-8"?>
<svg width="16px" height="11px" viewBox="0 0 16 11" version="1.1" xmlns="http://www.w3.org/2000/svg" xmlns:xlink="http://www.w3.org/1999/xlink">
    <!-- Generator: Sketch 51.2 (57519) - http://www.bohemiancoding.com/sketch -->
    <title>Combined shape 25952</title>
    <desc>Created with Sketch.</desc>
    <defs></defs>
    <g id="Page-1" stroke="none" stroke-width="1" fill="none" fill-rule="evenodd">
        <g id="Signup" transform="translate(-926.000000, -514.000000)" fill="#A4A4A4">
            <g id="Right" transform="translate(495.000000, 56.000000)">
                <path d="M439.000099,457.9999 C442.637896,457.9999 445.742192,460.28029 446.999783,463.50022 C445.742192,466.719576 442.637896,468.999952 439.000099,468.999952 C435.362302,468.999952 432.258006,466.719576 430.998838,463.50022 C432.258006,460.28029 435.362302,457.9999 439.000099,457.9999 Z M439.000099,467.16689 C441.007164,467.16689 442.637896,465.524256 442.637896,463.50022 C442.637896,461.476184 441.007164,459.833536 439.000099,459.833536 C436.993034,459.833536 435.362302,461.476184 435.362302,463.50022 C435.362302,465.524256 436.993034,467.16689 439.000099,467.16689 Z M439.000099,461.30054 C440.206884,461.30054 441.181831,462.282724 441.181831,463.50022 C441.181831,464.717142 440.206884,465.699886 439.000099,465.699886 C437.793314,465.699886 436.816771,464.717142 436.816771,463.50022 C436.816771,462.282724 437.793314,461.30054 439.000099,461.30054 Z" id="Combined-shape-25952"></path>
            </g>
        </g>
    </g>
</svg>